<?xml version="1.0" encoding="UTF-8" standalone="no"?><!DOCTYPE svg PUBLIC "-//W3C//DTD SVG 1.1//EN" "http://www.w3.org/Graphics/SVG/1.1/DTD/svg11.dtd"><svg width="100%" height="100%" viewBox="0 0 16374 2693" version="1.1" xmlns="http://www.w3.org/2000/svg" xmlns:xlink="http://www.w3.org/1999/xlink" xml:space="preserve" xmlns:serif="http://www.serif.com/" style="fill-rule:evenodd;clip-rule:evenodd;stroke-linejoin:round;stroke-miterlimit:1.41421;"><rect id="Artboard2" x="0" y="0" width="16373.5" height="2692.52" style="fill:none;"/><path d="M4012.97,1589.54c0,41.768 -9.053,81.457 -27.158,119.053c-18.097,37.596 -43.397,70.776 -75.884,99.555c-32.487,28.779 -71.012,51.749 -115.574,68.925c-44.554,17.176 -93.753,25.764 -147.596,25.764c-48.27,0 -91.667,-2.786 -130.192,-8.359c-38.525,-5.566 -74.727,-14.39 -108.607,-26.457c-33.888,-12.068 -66.375,-27.615 -97.469,-46.641c-31.101,-19.034 -63.36,-42.011 -96.776,-68.926l153.169,-154.562c44.555,37.131 88.181,63.352 130.885,78.671c42.705,15.318 89.117,22.977 139.244,22.977c20.42,0 39.682,-3.015 57.787,-9.052c18.098,-6.03 33.881,-14.154 47.341,-24.371c13.461,-10.21 24.135,-22.277 32.023,-36.202c7.895,-13.918 11.839,-29.237 11.839,-45.948c0,-17.641 -3.251,-33.416 -9.745,-47.341c-6.502,-13.926 -18.105,-27.386 -34.81,-40.383c-16.711,-12.996 -39.917,-26.221 -69.625,-39.682c-29.708,-13.46 -67.761,-28.543 -114.181,-45.255c-40.839,-14.854 -80.064,-31.794 -117.66,-50.827c-37.595,-19.027 -70.547,-42.004 -98.862,-68.926c-28.314,-26.914 -51.056,-58.48 -68.225,-94.682c-17.176,-36.203 -25.764,-78.907 -25.764,-128.106c0,-47.341 9.517,-90.967 28.543,-130.884c19.034,-39.918 45.027,-74.035 77.978,-102.342c32.952,-28.315 71.476,-50.363 115.574,-66.146c44.09,-15.776 91.667,-23.671 142.724,-23.671c85.401,0 157.341,11.139 215.829,33.424c58.479,22.277 110.465,54.764 155.948,97.468l-150.383,151.776c-27.85,-26.921 -58.944,-47.577 -93.289,-61.966c-34.352,-14.39 -74.727,-21.585 -121.147,-21.585c-21.348,0 -41.075,3.251 -59.172,9.746c-18.105,6.502 -33.652,15.09 -46.648,25.764c-12.997,10.674 -23.442,23.206 -31.33,37.596c-7.895,14.389 -11.839,29.472 -11.839,45.255c0,17.633 3.715,33.651 11.139,48.034c7.43,14.389 19.962,28.314 37.595,41.775c17.641,13.461 41.083,26.922 70.319,40.382c29.244,13.461 65.675,28.079 109.308,43.862c55.7,19.491 103.506,40.847 143.416,64.053c39.918,23.206 72.413,48.734 97.476,76.585c25.064,27.842 43.626,59.172 55.694,93.989c12.067,34.809 18.105,74.027 18.105,117.66Z" style="fill:#c0c1c3;fill-rule:nonzero;"/><path d="M4930.57,960.162l-307.725,0l0,920.394l-218.615,0l0,-920.394l-307.725,0l0,-192.159l834.065,0l0,192.159Z" style="fill:#c0c1c3;fill-rule:nonzero;"/><path d="M5805.02,1880.56l-735.203,0l0,-1112.55l735.203,0l0,178.233l-523.554,0l0,265.957l516.595,0l0,174.053l-516.595,0l0,306.332l523.554,0l0,187.978Z" style="fill:#c0c1c3;fill-rule:nonzero;"/><path d="M7095.82,1881.25l-236.713,0l-103.041,-222.788l-540.265,0l-104.428,222.788l-236.713,0l526.333,-1113.95l168.487,0l526.34,1113.95Zm-424.691,-402.414l-185.192,-401.014l-187.979,401.014l373.171,0Z" style="fill:#c0c1c3;fill-rule:nonzero;"/><path d="M8318.34,1881.25l-211.649,0l0,-743.555l-350.894,591.779l-336.968,-597.352l0,749.128l-211.649,0l0,-1113.95l243.672,0l309.125,552.797l323.043,-552.797l235.32,0l0,1113.95Z" style="fill:#c0c1c3;fill-rule:nonzero;"/><path d="M9650.92,1881.25l-236.713,0l-103.042,-222.788l-540.258,0l-104.435,222.788l-236.713,0l526.34,-1113.95l168.481,0l526.34,1113.95Zm-424.692,-402.414l-185.192,-401.014l-187.979,401.014l373.171,0Z" style="fill:#c0c1c3;fill-rule:nonzero;"/><path d="M10688.3,1881.25l-211.65,0l-502.669,-781.151l0,781.151l-211.649,0l0,-1113.95l242.286,0l472.032,726.85l0,-726.85l211.65,0l0,1113.95Z" style="fill:#c0c1c3;fill-rule:nonzero;"/><path d="M11922,1676.57c-31.558,38.982 -65.911,72.634 -103.042,100.949c-37.131,28.314 -75.884,51.749 -116.266,70.318c-40.375,18.562 -81.686,32.259 -123.926,41.075c-42.233,8.817 -84.244,13.233 -126.012,13.233c-82.622,0 -160.129,-14.854 -232.541,-44.562c-72.405,-29.708 -135.529,-70.548 -189.364,-122.533c-53.843,-51.985 -96.548,-113.251 -128.106,-183.799c-31.566,-70.554 -47.341,-146.675 -47.341,-228.36c0,-79.836 15.547,-154.792 46.641,-224.882c31.101,-70.083 73.798,-131.12 128.105,-183.098c54.308,-51.986 117.66,-93.061 190.065,-123.233c72.412,-30.173 149.919,-45.255 232.541,-45.255c95.611,0 182.641,19.498 261.076,58.48c78.443,38.989 145.046,90.974 199.818,155.956l-145.968,148.989c-41.701,-56.622 -88.497,-97.24 -140.394,-121.839c-51.897,-24.6 -109.823,-36.896 -173.773,-36.896c-52.826,0 -102.408,9.746 -148.739,29.236c-46.331,19.498 -86.883,46.184 -121.641,80.064c-34.765,33.888 -62.099,73.342 -82.025,118.361c-19.918,45.019 -29.884,93.06 -29.884,144.117c0,51.985 9.959,100.483 29.877,145.51c19.911,45.019 47.238,84.701 81.973,119.053c34.743,34.345 75.266,61.266 121.582,80.757c46.309,19.498 95.869,29.243 148.665,29.243c50.025,0 97.263,-9.281 141.721,-27.85c44.452,-18.562 84.281,-43.161 119.488,-73.798l0,-107.214l-228.36,0l0,-183.806l435.83,0l0,371.784Z" style="fill:#c0c1c3;fill-rule:nonzero;"/><path d="M13228,1324.28c0,79.828 -15.533,155.019 -46.597,225.574c-31.057,70.547 -73.481,131.814 -127.25,183.799c-53.777,51.985 -116.363,93.06 -187.765,123.233c-71.395,30.165 -147.427,45.255 -228.088,45.255c-80.654,0 -156.922,-15.09 -228.781,-45.255c-71.86,-30.173 -134.681,-71.248 -188.458,-123.233c-53.777,-51.985 -96.193,-113.016 -127.25,-183.106c-31.065,-70.083 -46.597,-145.51 -46.597,-226.267c0,-80.765 15.532,-156.421 46.597,-226.968c31.057,-70.547 73.473,-131.813 127.25,-183.799c53.777,-51.985 116.598,-92.832 188.458,-122.532c71.859,-29.708 148.127,-44.562 228.781,-44.562c80.661,0 156.693,14.854 228.088,44.562c71.402,29.7 133.988,70.776 187.765,123.225c53.769,52.45 96.193,113.716 127.25,183.799c31.064,70.09 46.597,145.51 46.597,226.275Zm-215.829,0c0,-51.057 -9.768,-99.098 -29.295,-144.117c-19.536,-45.027 -46.273,-84.473 -80.219,-118.36c-33.947,-33.881 -73.703,-60.802 -119.267,-80.757c-45.572,-19.963 -93.931,-29.937 -145.09,-29.937c-52.081,0 -100.912,9.974 -146.476,29.937c-45.565,19.955 -85.32,46.876 -119.267,80.757c-33.947,33.887 -60.691,73.333 -80.219,118.36c-19.528,45.019 -29.295,93.06 -29.295,144.117c0,50.127 9.767,97.933 29.295,143.416c19.528,45.491 46.272,85.173 80.219,119.053c33.947,33.888 73.702,60.802 119.267,80.765c45.564,19.955 94.395,29.936 146.476,29.936c51.159,0 99.518,-9.981 145.09,-29.936c45.564,-19.963 85.32,-46.877 119.267,-80.765c33.946,-33.88 60.683,-73.562 80.219,-119.053c19.527,-45.483 29.295,-93.289 29.295,-143.416Z" style="fill:#c0c1c3;fill-rule:nonzero;"/><circle cx="1490.79" cy="1348.41" r="1288.02" style="fill:#c0c1c3;"/><path d="M2341.96,780.361c-113.056,-135.883 -274.912,-174.039 -425.362,-56.844c-7.377,-46.445 -26.438,-90.856 -57.016,-131.889l-82.622,61.555c66.283,88.961 35.627,178.711 9.327,226.928c-189.883,-98.155 -654.394,-155.75 -869.7,415.678c-87.027,230.955 -254.144,299.222 -292.222,398.022c-99.005,256.895 490.3,619.578 1048.05,261.195c500.572,-321.662 434.438,-822.712 199.966,-1018.05c8.078,-14.145 16.65,-31.195 24.289,-50.673c164.089,143.9 336.706,102.656 471.517,-74.394l-26.222,-31.528Z" style="fill:#171a21;fill-rule:nonzero;"/><g><rect x="13795.2" y="754.368" width="2393.87" height="1128.71" style="fill:#c0c1c3;"/><g opacity="0.67"><path d="M13968.3,1062.58l296.327,0c49.388,0 87.302,12.231 113.744,36.691c26.441,24.461 39.661,54.746 39.661,90.855c0,30.285 -9.435,56.261 -28.305,77.926c-12.579,14.444 -30.983,25.859 -55.211,34.245c36.808,8.853 63.889,24.054 81.245,45.603c17.356,21.549 26.033,48.63 26.033,81.245c0,26.558 -6.173,50.436 -18.52,71.636c-12.347,21.199 -29.237,37.972 -50.669,50.319c-13.279,7.688 -33.314,13.279 -60.104,16.774c-35.643,4.659 -59.289,6.988 -70.937,6.988l-273.264,0l0,-512.282Zm159.695,200.929l68.84,0c24.694,0 41.875,-4.251 51.543,-12.754c9.668,-8.503 14.502,-20.792 14.502,-36.866c0,-14.91 -4.834,-26.558 -14.502,-34.945c-9.668,-8.386 -26.499,-12.58 -50.494,-12.58l-69.889,0l0,97.145Zm0,201.279l80.721,0c27.257,0 46.476,-4.834 57.658,-14.502c11.183,-9.668 16.774,-22.655 16.774,-38.963c0,-15.142 -5.533,-27.314 -16.599,-36.516c-11.066,-9.202 -30.46,-13.803 -58.182,-13.803l-80.372,0l0,103.784Z" style="fill:#171a21;fill-rule:nonzero;"/><path d="M14524.2,1062.58l424.223,0l0,109.375l-265.576,0l0,81.421l246.356,0l0,104.483l-246.356,0l0,100.989l273.263,0l0,116.014l-431.91,0l0,-512.282Z" style="fill:#171a21;fill-rule:nonzero;"/><path d="M15005.4,1062.58l481.182,0l0,126.498l-161.443,0l0,385.784l-158.297,0l0,-385.784l-161.442,0l0,-126.498Z" style="fill:#171a21;fill-rule:nonzero;"/><path d="M15824.6,1490.3l-179.717,0l-24.969,84.565l-161.628,0l192.543,-512.282l172.668,0l192.499,512.282l-165.767,0l-25.629,-84.565Zm-32.837,-110.773l-56.544,-184.156l-55.955,184.156l112.499,0Z" style="fill:#171a21;fill-rule:nonzero;"/></g></g></svg>